<svg width="28" height="28" viewBox="0 0 28 28" fill="none" xmlns="http://www.w3.org/2000/svg">
<path d="M25.2702 12.1783L24.1269 17.0549C23.1469 21.2666 21.2102 22.9699 17.5702 22.6199C16.9869 22.5733 16.3569 22.4683 15.6802 22.3049L13.7202 21.8383C8.85522 20.6833 7.35022 18.2799 8.49356 13.4033L9.63689 8.51492C9.87022 7.52326 10.1502 6.65992 10.5002 5.94826C11.8652 3.12492 14.1869 2.36659 18.0836 3.28826L20.0319 3.74326C24.9202 4.88659 26.4136 7.30159 25.2702 12.1783Z" stroke="#073660" stroke-width="1.75"/>
<path d="M17.5704 22.6235C16.847 23.1135 15.937 23.5219 14.8287 23.8835L12.9854 24.4902C8.35373 25.9835 5.9154 24.7352 4.4104 20.1035L2.91706 15.4952C1.42373 10.8635 2.6604 8.41344 7.29206 6.92011L9.1354 6.31344C9.61373 6.16178 10.0687 6.03344 10.5004 5.95178C10.1504 6.66344 9.8704 7.52678 9.63706 8.51844L8.49373 13.4069C7.3504 18.2835 8.8554 20.6869 13.7204 21.8419L15.6804 22.3085C16.357 22.4719 16.987 22.5769 17.5704 22.6235Z" stroke="#073660" stroke-width="1.75"/>
<path d="M14.7462 9.95312L20.4045 11.3881" stroke="#073660" stroke-width="1.75"/>
<path d="M13.6036 14.4648L16.9869 15.3281" stroke="#073660" stroke-width="1.75"/>
</svg>
