<svg width="28" height="28" viewBox="0 0 28 28" fill="none" xmlns="http://www.w3.org/2000/svg">
<path d="M4.66667 25.6667H21C21.6188 25.6667 22.2123 25.4208 22.6499 24.9832C23.0875 24.5456 23.3333 23.9521 23.3333 23.3333V8.1667L17.5 2.33337H7C6.38116 2.33337 5.78767 2.5792 5.35009 3.01679C4.91249 3.45437 4.66667 4.04787 4.66667 4.6667V9.33337" stroke="#073660" stroke-width="1.75"/>
<path d="M16.3333 2.33337V7.00003C16.3333 7.61887 16.5791 8.21236 17.0168 8.64995C17.4544 9.08754 18.0479 9.33337 18.6667 9.33337H23.3333" stroke="#073660" stroke-width="1.75"/>
<path d="M1.16667 17.5H8.16667" stroke="#073660" stroke-width="1.75"/>
<path d="M4.66667 14V21" stroke="#073660" stroke-width="1.75"/>
<path d="M11.6667 14H18.6667" stroke="#073660" stroke-width="1.75"/>
<path d="M14 17.5H18.6667" stroke="#073660" stroke-width="1.75"/>
</svg>
