<svg width="28" height="28" viewBox="0 0 28 28" fill="none" xmlns="http://www.w3.org/2000/svg">
<path fillRule="evenodd" clipRule="evenodd" d="M5.22208 3.0001L5.13199 3.00005C4.72307 2.99969 4.37056 2.99939 4.05829 3.06792C3.07653 3.28335 2.30999 3.98401 2.07431 4.88139C1.99933 5.16682 1.99966 5.48902 2.00006 5.8628L2.00011 5.94515V9.87189L2.00006 9.95424C1.99966 10.328 1.99933 10.6502 2.07431 10.9357C2.30999 11.833 3.07653 12.5337 4.05829 12.7492C4.37056 12.8177 4.72307 12.8174 5.13199 12.817H5.22208H9.51805H9.60814C10.017 12.8174 10.3695 12.8177 10.6819 12.7492C11.6635 12.5337 12.4301 11.833 12.6659 10.9357C12.7408 10.6502 12.7405 10.328 12.7401 9.95424L12.74 9.87189V5.94515L12.7401 5.8628C12.7405 5.48902 12.7408 5.16682 12.6659 4.88139C12.4301 3.98401 11.6635 3.28335 10.6819 3.06792C10.3695 2.99939 10.017 2.99969 9.60814 3.00005L9.51805 3.0001H5.22208ZM4.47615 4.65885C4.5532 4.64194 4.67116 4.63624 5.22208 4.63624H9.51805C10.069 4.63624 10.187 4.64194 10.264 4.65885C10.5912 4.73066 10.8467 4.9642 10.9253 5.26334C10.9438 5.33376 10.9501 5.44158 10.9501 5.94515V9.87189C10.9501 10.3755 10.9438 10.4833 10.9253 10.5537C10.8467 10.8529 10.5912 11.0864 10.264 11.1582C10.187 11.1751 10.069 11.1808 9.51805 11.1808H5.22208C4.67116 11.1808 4.5532 11.1751 4.47615 11.1582C4.1489 11.0864 3.89339 10.8529 3.81483 10.5537C3.79631 10.4833 3.79009 10.3755 3.79009 9.87189V5.94515C3.79009 5.44158 3.79631 5.33376 3.81483 5.26334C3.89339 4.9642 4.1489 4.73066 4.47615 4.65885ZM17.752 3.0001L17.6619 3.00005C17.253 2.99969 16.9005 2.99939 16.5881 3.06792C15.6064 3.28335 14.8398 3.98401 14.6041 4.88139C14.5292 5.16682 14.5295 5.48902 14.53 5.8628V5.94515V9.87189V9.95424C14.5295 10.328 14.5292 10.6502 14.6041 10.9357C14.8398 11.833 15.6064 12.5337 16.5881 12.7492C16.9005 12.8177 17.253 12.8174 17.6619 12.817H17.752H22.0479H22.138C22.547 12.8174 22.8994 12.8177 23.2118 12.7492C24.1934 12.5337 24.96 11.833 25.1958 10.9357C25.2706 10.6502 25.2705 10.328 25.2699 9.95424V9.87189V5.94515V5.8628C25.2705 5.48902 25.2706 5.16682 25.1958 4.88139C24.96 3.98401 24.1934 3.28335 23.2118 3.06792C22.8994 2.99939 22.547 2.99969 22.138 3.00005L22.0479 3.0001H17.752ZM17.0061 4.65885C17.083 4.64194 17.2011 4.63624 17.752 4.63624H22.0479C22.5989 4.63624 22.7168 4.64194 22.7938 4.65885C23.121 4.73066 23.3766 4.9642 23.4552 5.26334C23.4737 5.33376 23.4799 5.44158 23.4799 5.94515V9.87189C23.4799 10.3755 23.4737 10.4833 23.4552 10.5537C23.3766 10.8529 23.121 11.0864 22.7938 11.1582C22.7168 11.1751 22.5989 11.1808 22.0479 11.1808H17.752C17.2011 11.1808 17.083 11.1751 17.0061 11.1582C16.6788 11.0864 16.4232 10.8529 16.3447 10.5537C16.3263 10.4833 16.3199 10.3755 16.3199 9.87189V5.94515C16.3199 5.44158 16.3263 5.33376 16.3447 5.26334C16.4232 4.9642 16.6788 4.73066 17.0061 4.65885ZM5.13199 14.453L5.22208 14.4531H9.51805L9.60814 14.453C10.017 14.4527 10.3695 14.4524 10.6819 14.5209C11.6635 14.7364 12.4301 15.437 12.6659 16.3344C12.7408 16.6198 12.7405 16.942 12.7401 17.3158L12.74 17.3981V21.3249L12.7401 21.4071C12.7405 21.781 12.7408 22.1032 12.6659 22.3887C12.4301 23.286 11.6635 23.9867 10.6819 24.2022C10.3695 24.2705 10.017 24.2704 9.60814 24.2699H9.51805H5.22208H5.13199C4.72307 24.2704 4.37056 24.2705 4.05829 24.2022C3.07653 23.9867 2.30999 23.286 2.07431 22.3887C1.99933 22.1032 1.99966 21.781 2.00006 21.4071L2.00011 21.3249V17.3981L2.00006 17.3158C1.99966 16.942 1.99933 16.6198 2.07431 16.3344C2.30999 15.437 3.07653 14.7364 4.05829 14.5209C4.37056 14.4524 4.72307 14.4527 5.13199 14.453ZM5.22208 16.0893C4.67116 16.0893 4.5532 16.0949 4.47615 16.1119C4.1489 16.1837 3.89339 16.4172 3.81483 16.7163C3.79631 16.7868 3.79009 16.8946 3.79009 17.3981V21.3249C3.79009 21.8284 3.79631 21.9363 3.81483 22.0067C3.89339 22.3058 4.1489 22.5394 4.47615 22.6112C4.5532 22.6281 4.67116 22.6339 5.22208 22.6339H9.51805C10.069 22.6339 10.187 22.6281 10.264 22.6112C10.5912 22.5394 10.8467 22.3058 10.9253 22.0067C10.9438 21.9363 10.9501 21.8284 10.9501 21.3249V17.3981C10.9501 16.8946 10.9438 16.7868 10.9253 16.7163C10.8467 16.4172 10.5912 16.1837 10.264 16.1119C10.187 16.0949 10.069 16.0893 9.51805 16.0893H5.22208ZM17.752 14.4531L17.6619 14.453C17.253 14.4527 16.9005 14.4524 16.5881 14.5209C15.6064 14.7364 14.8398 15.437 14.6041 16.3344C14.5292 16.6198 14.5295 16.942 14.53 17.3158V17.3981V21.3249V21.4071C14.5295 21.781 14.5292 22.1032 14.6041 22.3887C14.8398 23.286 15.6064 23.9867 16.5881 24.2022C16.9005 24.2705 17.253 24.2704 17.6619 24.2699H17.752H22.0479H22.138C22.547 24.2704 22.8994 24.2705 23.2118 24.2022C24.1934 23.9867 24.96 23.286 25.1958 22.3887C25.2706 22.1032 25.2705 21.781 25.2699 21.4071V21.3249V17.3981V17.3158C25.2705 16.942 25.2706 16.6198 25.1958 16.3344C24.96 15.437 24.1934 14.7364 23.2118 14.5209C22.8994 14.4524 22.547 14.4527 22.138 14.453L22.0479 14.4531H17.752ZM17.0061 16.1119C17.083 16.0949 17.2011 16.0893 17.752 16.0893H22.0479C22.5989 16.0893 22.7168 16.0949 22.7938 16.1119C23.121 16.1837 23.3766 16.4172 23.4552 16.7163C23.4737 16.7868 23.4799 16.8946 23.4799 17.3981V21.3249C23.4799 21.8284 23.4737 21.9363 23.4552 22.0067C23.3766 22.3058 23.121 22.5394 22.7938 22.6112C22.7168 22.6281 22.5989 22.6339 22.0479 22.6339H17.752C17.2011 22.6339 17.083 22.6281 17.0061 22.6112C16.6788 22.5394 16.4232 22.3058 16.3447 22.0067C16.3263 21.9363 16.3199 21.8284 16.3199 21.3249V17.3981C16.3199 16.8946 16.3263 16.7868 16.3447 16.7163C16.4232 16.4172 16.6788 16.1837 17.0061 16.1119Z" fill="#013369"/>
</svg>
