<svg width="367" height="303" viewBox="0 0 367 303" fill="none" xmlns="http://www.w3.org/2000/svg">
<path d="M215.349 110.695C192.629 110.837 169.554 109.745 147.977 103.553C126.394 97.3619 107.308 85.6841 89.9566 72.0446C78.5939 63.1648 68.2679 56.11 53.5196 57.1701C39.0992 57.9516 25.303 63.509 14.1783 73.0228C-4.59039 90.0011 -1.7444 121.368 5.74086 143.439C17.019 176.685 51.3454 199.762 80.493 214.8C114.195 232.194 151.204 242.303 188.318 248.101C220.851 253.2 262.636 256.921 290.805 234.965C316.699 214.828 323.804 168.783 317.456 137.696C315.911 128.515 311.176 120.226 304.141 114.395C285.949 100.673 258.838 109.832 238.392 110.307C230.939 110.471 223.104 110.668 215.349 110.695Z" fill="#2684FC"/>
<path d="M104.566 2V14.0439" stroke="#2684FC"/>
<path d="M98.7383 8.02148H110.397" stroke="#2684FC"/>
<path d="M325.75 242.053V254.097" stroke="#2684FC"/>
<path d="M319.926 248.072H331.585" stroke="#2684FC"/>
<path d="M16.4798 190.041C17.9451 190.041 19.1353 188.812 19.1353 187.298C19.1353 185.784 17.9451 184.555 16.4798 184.555C15.0145 184.555 13.8242 185.784 13.8242 187.298C13.8189 188.812 15.0092 190.041 16.4798 190.041Z" fill="#2684FC"/>
<path d="M242.708 9.24609C243.998 9.24609 245.062 10.331 245.062 11.6875C245.062 13.044 243.998 14.1289 242.708 14.1289C241.412 14.1287 240.35 13.0485 240.354 11.6885C240.355 10.3321 241.418 9.24625 242.708 9.24609Z" fill="#2684FC" stroke="#2684FC"/>
<path d="M169.066 302.549C224.023 302.549 268.57 299.691 268.57 296.161C268.57 292.636 224.023 289.773 169.066 289.773C114.114 289.773 69.5625 292.631 69.5625 296.161C69.5625 299.691 114.114 302.549 169.066 302.549Z" fill="#2684FC"/>
<path d="M92.4218 34.7109H236.932C240.53 34.7109 243.979 36.1864 246.518 38.8148C249.057 41.4433 250.485 45.0007 250.485 48.7166V226.315C250.485 230.031 249.057 233.594 246.518 236.217C243.973 238.84 240.524 240.315 236.932 240.315H73.9019C70.3047 240.315 66.8609 238.84 64.3164 236.217C61.7719 233.588 60.3438 230.025 60.3438 226.315V68.1813L92.4218 34.7109Z" fill="white" stroke="#073660" stroke-opacity="0.5"/>
<path d="M249.833 121.258H100.826V242.025H249.838V121.258H249.833Z" fill="#2684FC"/>
<path d="M60.3496 68.1813H86.6194C88.1588 68.1758 89.6347 67.5365 90.7244 66.4053C91.8142 65.2741 92.4225 63.7495 92.4225 62.1594V34.7109L60.3496 68.1813Z" fill="white" stroke="#073660" stroke-opacity="0.5"/>
<path d="M249.103 82.6895H101.72C95.9858 82.6895 91.3359 87.4928 91.3359 93.4164V125.99C91.3359 131.914 95.9858 136.717 101.72 136.717H249.103C254.837 136.717 259.487 131.914 259.487 125.99V93.4164C259.487 87.4928 254.837 82.6895 249.103 82.6895Z" fill="white" stroke="#073660" stroke-opacity="0.5"/>
<path d="M119.967 119.128C124.966 119.128 129.023 114.942 129.023 109.773C129.023 104.609 124.971 100.418 119.967 100.418C114.968 100.418 110.91 104.603 110.91 109.773C110.91 114.942 114.968 119.128 119.967 119.128Z" fill="#2684FC"/>
<path d="M148.435 119.128C153.434 119.128 157.492 114.942 157.492 109.773C157.492 104.609 153.44 100.418 148.435 100.418C143.436 100.418 139.379 104.603 139.379 109.773C139.379 114.942 143.431 119.128 148.435 119.128Z" fill="#2684FC"/>
<path d="M176.877 119.128C181.876 119.128 185.933 114.942 185.933 109.773C185.933 104.609 181.881 100.418 176.877 100.418C171.878 100.418 167.82 104.603 167.82 109.773C167.82 114.942 171.878 119.128 176.877 119.128Z" fill="#2684FC"/>
<path d="M249.103 142.57H101.72C95.9858 142.57 91.3359 147.374 91.3359 153.297V185.871C91.3359 191.795 95.9858 196.598 101.72 196.598H249.103C254.837 196.598 259.487 191.795 259.487 185.871V153.297C259.487 147.374 254.837 142.57 249.103 142.57Z" fill="white" stroke="#073660" stroke-opacity="0.5"/>
<path d="M119.967 179.034C124.966 179.034 129.023 174.848 129.023 169.679C129.023 164.515 124.971 160.324 119.967 160.324C114.968 160.324 110.91 164.51 110.91 169.679C110.91 174.848 114.968 179.034 119.967 179.034Z" fill="#2684FC"/>
<path d="M148.435 179.034C153.434 179.034 157.492 174.848 157.492 169.679C157.492 164.515 153.44 160.324 148.435 160.324C143.436 160.324 139.379 164.51 139.379 169.679C139.379 174.848 143.431 179.034 148.435 179.034Z" fill="#2684FC"/>
<path d="M176.877 179.034C181.876 179.034 185.933 174.848 185.933 169.679C185.933 164.515 181.881 160.324 176.877 160.324C171.878 160.324 167.82 164.51 167.82 169.679C167.82 174.848 171.878 179.034 176.877 179.034Z" fill="#2684FC"/>
<path d="M249.103 202.479H101.72C95.9858 202.479 91.3359 207.282 91.3359 213.205V245.78C91.3359 251.703 95.9858 256.507 101.72 256.507H249.103C254.837 256.507 259.487 251.703 259.487 245.78V213.205C259.487 207.282 254.837 202.479 249.103 202.479Z" fill="white" stroke="#073660" stroke-opacity="0.5"/>
<path d="M119.967 238.914C124.966 238.914 129.023 234.728 129.023 229.558C129.023 224.394 124.971 220.203 119.967 220.203C114.968 220.203 110.91 224.389 110.91 229.558C110.91 234.728 114.968 238.914 119.967 238.914Z" fill="#2684FC"/>
<path d="M148.435 238.914C153.434 238.914 157.492 234.728 157.492 229.558C157.492 224.394 153.44 220.203 148.435 220.203C143.436 220.203 139.379 224.389 139.379 229.558C139.379 234.728 143.431 238.914 148.435 238.914Z" fill="#2684FC"/>
<path d="M176.877 238.914C181.876 238.914 185.933 234.728 185.933 229.558C185.933 224.394 181.881 220.203 176.877 220.203C171.878 220.203 167.82 224.389 167.82 229.558C167.82 234.728 171.878 238.914 176.877 238.914Z" fill="#2684FC"/>
<path d="M262.446 150.912C293.487 150.912 318.651 124.918 318.651 92.8522C318.651 60.7862 293.487 34.7969 262.446 34.7969C231.404 34.7969 206.24 60.7917 206.24 92.8577C206.24 124.923 231.404 150.912 262.446 150.912Z" fill="white" stroke="#073660" stroke-opacity="0.8"/>
<path d="M302.354 134.979L317.319 150.439" stroke="white"/>
<path d="M315.646 142.937L311.001 147.959C308.912 150.216 308.986 153.8 311.176 155.959L351.549 195.828C353.733 197.987 357.204 197.905 359.288 195.648L363.932 190.626C366.022 188.369 365.943 184.784 363.758 182.626L323.385 142.757C321.206 140.598 317.735 140.675 315.646 142.937Z" fill="white" stroke="#073660" stroke-opacity="0.8"/>
</svg>
