<svg width="13" height="13" viewBox="0 0 13 13" fill="none" xmlns="http://www.w3.org/2000/svg">
<path d="M1.28106 9.26347C1.18974 9.26345 1.10047 9.23636 1.02454 9.18561C0.94861 9.13486 0.889431 9.06274 0.854485 8.97837C0.819539 8.89399 0.810393 8.80115 0.828205 8.71158C0.846016 8.622 0.889985 8.53972 0.954553 8.47514L8.17151 1.25818C8.21411 1.21407 8.26507 1.17889 8.32142 1.15468C8.37776 1.13048 8.43836 1.11774 8.49968 1.1172C8.56101 1.11667 8.62182 1.12836 8.67857 1.15158C8.73533 1.1748 8.7869 1.20909 8.83026 1.25245C8.87362 1.29582 8.90791 1.34738 8.93113 1.40414C8.95435 1.46089 8.96604 1.52171 8.9655 1.58303C8.96497 1.64435 8.95223 1.70495 8.92803 1.76129C8.90382 1.81764 8.86864 1.8686 8.82453 1.9112L1.60757 9.12816C1.51752 9.21821 1.39929 9.26347 1.28106 9.26347Z" fill="black"/>
<path d="M0.567664 12.59C0.498752 12.5901 0.430702 12.5747 0.368501 12.5451C0.3063 12.5154 0.251526 12.4722 0.208194 12.4186C0.164863 12.365 0.134072 12.3024 0.118078 12.2354C0.102085 12.1684 0.101295 12.0986 0.115767 12.0312L0.829288 8.70539C0.841848 8.64594 0.866019 8.58954 0.900416 8.53944C0.934813 8.48934 0.978759 8.44653 1.02973 8.41344C1.08071 8.38036 1.13772 8.35767 1.19748 8.34666C1.25724 8.33565 1.31859 8.33654 1.37801 8.34929C1.43743 8.36204 1.49375 8.38638 1.54374 8.42094C1.59373 8.45549 1.63641 8.49957 1.66933 8.55065C1.70225 8.60173 1.72477 8.65881 1.73559 8.71861C1.74641 8.77841 1.74532 8.83975 1.73239 8.89913L1.01887 12.225C0.996742 12.3282 0.939887 12.4208 0.857781 12.4872C0.775675 12.5537 0.673279 12.59 0.567664 12.59ZM3.89304 11.8765C3.80172 11.8765 3.71245 11.8494 3.63652 11.7987C3.56059 11.7479 3.50141 11.6758 3.46646 11.5914C3.43152 11.507 3.42237 11.4142 3.44018 11.3246C3.458 11.2351 3.50196 11.1528 3.56653 11.0882L10.7835 3.87146C10.8261 3.82735 10.8771 3.79217 10.9334 3.76796C10.9897 3.74376 11.0503 3.73102 11.1117 3.73049C11.173 3.72995 11.2338 3.74164 11.2906 3.76486C11.3473 3.78808 11.3989 3.82237 11.4422 3.86573C11.4856 3.9091 11.5199 3.96066 11.5431 4.01742C11.5663 4.07417 11.578 4.13499 11.5775 4.19631C11.577 4.25763 11.5642 4.31823 11.54 4.37457C11.5158 4.43092 11.4806 4.48188 11.4365 4.52448L4.21979 11.7412C4.17693 11.7842 4.126 11.8183 4.06992 11.8415C4.01385 11.8647 3.95374 11.8766 3.89304 11.8765Z" fill="black"/>
<path d="M0.56654 12.5902C0.45274 12.5897 0.343122 12.5472 0.258693 12.4709C0.174263 12.3946 0.120962 12.2898 0.109004 12.1767C0.0970464 12.0635 0.127273 11.9499 0.193891 11.8576C0.260509 11.7654 0.358833 11.7009 0.470018 11.6767L3.79586 10.9632C3.91545 10.9379 4.04018 10.9611 4.14272 11.0276C4.24525 11.0942 4.31722 11.1986 4.34286 11.3181C4.3685 11.4377 4.34571 11.5625 4.27949 11.6652C4.21328 11.7679 4.10903 11.8402 3.9896 11.8663L0.663754 12.5798C0.63182 12.5867 0.599225 12.5902 0.56654 12.5902ZM9.80353 5.96596C9.74286 5.96608 9.68278 5.95418 9.62674 5.93095C9.5707 5.90773 9.51981 5.87364 9.47702 5.83065L6.8647 3.21833C6.82059 3.17573 6.7854 3.12477 6.7612 3.06842C6.737 3.01208 6.72426 2.95148 6.72372 2.89015C6.72319 2.82883 6.73487 2.76802 6.7581 2.71126C6.78132 2.65451 6.81561 2.60294 6.85897 2.55958C6.90233 2.51622 6.9539 2.48193 7.01065 2.45871C7.06741 2.43548 7.12822 2.4238 7.18954 2.42433C7.25087 2.42487 7.31147 2.43761 7.36781 2.46181C7.42416 2.48601 7.47512 2.5212 7.51772 2.56531L10.13 5.17763C10.1946 5.24221 10.2386 5.32449 10.2564 5.41407C10.2742 5.50364 10.2651 5.59648 10.2301 5.68086C10.1952 5.76523 10.136 5.83735 10.0601 5.8881C9.98412 5.93885 9.89485 5.96594 9.80353 5.96596ZM11.1098 4.65992C11.0184 4.65999 10.929 4.63294 10.853 4.5822C10.777 4.53146 10.7178 4.45931 10.6828 4.37487C10.6478 4.29044 10.6387 4.19753 10.6565 4.10789C10.6744 4.01826 10.7184 3.93594 10.7831 3.87135C11.0401 3.61434 11.1816 3.26636 11.1816 2.89182C11.1816 2.51728 11.0401 2.16929 10.7831 1.91228C10.5258 1.65505 10.1778 1.5135 9.8033 1.5135C9.42875 1.5135 9.08077 1.65505 8.82376 1.91228C8.78087 1.95518 8.72995 1.9892 8.6739 2.01241C8.61786 2.03563 8.55779 2.04758 8.49714 2.04758C8.43647 2.04758 8.37641 2.03563 8.32037 2.01241C8.26432 1.9892 8.2134 1.95518 8.17051 1.91228C8.12762 1.86939 8.09359 1.81847 8.07038 1.76243C8.04716 1.70638 8.03522 1.64632 8.03522 1.58566C8.03522 1.525 8.04716 1.46493 8.07038 1.40889C8.09359 1.35284 8.12762 1.30192 8.17051 1.25903C8.60185 0.827453 9.18168 0.589844 9.8033 0.589844C10.4247 0.589844 11.0047 0.827453 11.4361 1.25903C11.8677 1.69038 12.1053 2.2702 12.1053 2.89182C12.1053 3.51343 11.8677 4.09326 11.4361 4.5246C11.3933 4.56757 11.3425 4.60164 11.2865 4.62486C11.2305 4.64809 11.1704 4.66 11.1098 4.65992Z" fill="black"/>
</svg>
