<svg width="20" height="20" viewBox="0 0 20 20" fill="none" xmlns="http://www.w3.org/2000/svg">
<path fill-rule="evenodd" clip-rule="evenodd" d="M18.0817 13.1946C18.0817 14.8835 16.7079 16.2552 15.0211 16.2552H4.97984C3.29309 16.2552 1.91922 14.8835 1.91922 13.1946V6.80549C1.91884 6.26116 2.06466 5.72673 2.34145 5.25803L7.24098 10.1576C7.97398 10.8927 8.95559 11.2978 10.0015 11.2978C11.0453 11.2978 12.0269 10.8927 12.7599 10.1576L17.6595 5.25803C17.9363 5.72672 18.0821 6.26116 18.0817 6.80549V13.1946H18.0817ZM15.0211 3.7449H4.97984C4.28328 3.7449 3.64027 3.98064 3.1259 4.37287L8.07473 9.32385C8.58699 9.83393 9.27066 10.1169 10.0015 10.1169C10.7302 10.1169 11.4139 9.83393 11.9262 9.32385L16.875 4.37287C16.3607 3.98064 15.7177 3.7449 15.0211 3.7449ZM15.0211 2.56396H4.97984C2.64152 2.56396 0.738281 4.46721 0.738281 6.80553V13.1947C0.738281 15.5351 2.64152 17.4362 4.97984 17.4362H15.0211C17.3594 17.4362 19.2627 15.5351 19.2627 13.1947V6.80549C19.2627 4.46717 17.3594 2.56396 15.0211 2.56396Z" fill="#676767"/>
</svg>
