<svg width="15" height="15" viewBox="0 0 15 15" fill="none" xmlns="http://www.w3.org/2000/svg">
<path d="M9.61221 7.59224C9.61221 8.74724 8.67888 9.68057 7.52388 9.68057C6.36888 9.68057 5.43555 8.74724 5.43555 7.59224C5.43555 6.43724 6.36888 5.50391 7.52388 5.50391C8.67888 5.50391 9.61221 6.43724 9.61221 7.59224Z" stroke="black" strokeWidth="0.875" strokeLinecap="round" strokeLinejoin="round"/>
<path d="M7.52335 12.412C9.58251 12.412 11.5017 11.1986 12.8375 9.09865C13.3625 8.27615 13.3625 6.89365 12.8375 6.07115C11.5017 3.97115 9.58251 2.75781 7.52335 2.75781C5.46418 2.75781 3.54501 3.97115 2.20918 6.07115C1.68418 6.89365 1.68418 8.27615 2.20918 9.09865C3.54501 11.1986 5.46418 12.412 7.52335 12.412Z" stroke="black" strokeWidth="0.875" strokeLinecap="round" strokeLinejoin="round"/>
</svg>
