<svg width="20" height="20" viewBox="0 0 20 20" fill="none" xmlns="http://www.w3.org/2000/svg">
<path d="M17.5 6.3623V11.2498C17.5 11.6602 17.4192 12.0665 17.2621 12.4457C17.1051 12.8248 16.8749 13.1693 16.5847 13.4595C16.2945 13.7497 15.95 13.9799 15.5709 14.1369C15.1917 14.294 14.7854 14.3748 14.375 14.3748H6.25V14.9998C6.25148 15.4966 6.4495 15.9727 6.80081 16.324C7.15212 16.6753 7.62818 16.8733 8.125 16.8748H15.3313C15.429 16.8761 15.5252 16.8996 15.6125 16.9436L17.8438 18.0561C17.9311 18.1 18.0272 18.1235 18.125 18.1248C18.242 18.1247 18.3566 18.0923 18.4563 18.0311C18.5463 17.9748 18.6206 17.8964 18.672 17.8035C18.7234 17.7105 18.7502 17.606 18.75 17.4998V8.1248C18.7489 7.73796 18.6282 7.36093 18.4044 7.04539C18.1806 6.72985 17.8647 6.49125 17.5 6.3623Z" fill="white"/>
<path d="M16.25 11.25V3.75C16.25 3.25272 16.0525 2.77581 15.7008 2.42417C15.3492 2.07254 14.8723 1.875 14.375 1.875H3.125C2.62772 1.875 2.15081 2.07254 1.79917 2.42417C1.44754 2.77581 1.25 3.25272 1.25 3.75V15C1.24996 15.1178 1.28319 15.2332 1.34586 15.3329C1.40854 15.4326 1.49811 15.5125 1.60426 15.5636C1.71041 15.6146 1.82881 15.6346 1.94582 15.6212C2.06283 15.6079 2.17369 15.5617 2.26563 15.4881L5.04812 13.2619C5.15867 13.1735 5.29595 13.1252 5.4375 13.125H14.375C14.8723 13.125 15.3492 12.9275 15.7008 12.5758C16.0525 12.2242 16.25 11.7473 16.25 11.25ZM9.325 10.2375C9.29693 10.3151 9.25215 10.3855 9.19382 10.4438C9.1355 10.5021 9.06506 10.5469 8.9875 10.575C8.91266 10.608 8.83178 10.625 8.75 10.625C8.66822 10.625 8.58734 10.608 8.5125 10.575C8.43494 10.5469 8.3645 10.5021 8.30618 10.4438C8.24785 10.3855 8.20307 10.3151 8.175 10.2375C8.14297 10.1624 8.12599 10.0817 8.125 10C8.12743 9.83455 8.19215 9.67609 8.30625 9.55625C8.36704 9.50109 8.43679 9.45671 8.5125 9.425C8.58706 9.39101 8.66805 9.37341 8.75 9.37341C8.83195 9.37341 8.91294 9.39101 8.9875 9.425C9.06321 9.45671 9.13296 9.50109 9.19375 9.55625C9.30887 9.67543 9.37377 9.83431 9.375 10C9.37401 10.0817 9.35703 10.1624 9.325 10.2375ZM9.44438 8.05C9.41037 8.0704 9.38256 8.09968 9.36395 8.1347C9.34534 8.16972 9.33663 8.20915 9.33875 8.24875C9.33875 8.41451 9.2729 8.57348 9.15569 8.69069C9.03848 8.8079 8.87951 8.87375 8.71375 8.87375C8.54799 8.87375 8.38902 8.8079 8.27181 8.69069C8.1546 8.57348 8.08875 8.41451 8.08875 8.24875C8.08449 7.96197 8.16535 7.68036 8.32109 7.43952C8.47683 7.19868 8.70047 7.0094 8.96375 6.89563C9.09518 6.84111 9.20555 6.74569 9.27848 6.62352C9.35142 6.50135 9.38304 6.35892 9.36866 6.21736C9.35428 6.0758 9.29466 5.94264 9.19865 5.83763C9.10263 5.73262 8.97533 5.66135 8.83563 5.63438C8.67989 5.60598 8.51913 5.63365 8.38184 5.71247C8.24456 5.7913 8.13962 5.91619 8.08563 6.065C8.02898 6.21978 7.91349 6.34591 7.76429 6.41595C7.61509 6.48599 7.44427 6.49426 7.289 6.43896C7.13374 6.38366 7.0066 6.26927 6.93527 6.12069C6.86394 5.97211 6.85418 5.80137 6.90813 5.64563C7.01442 5.34516 7.19415 5.07604 7.43095 4.86273C7.66776 4.64942 7.95413 4.4987 8.26403 4.42427C8.57393 4.34984 8.89752 4.35406 9.20537 4.43655C9.51322 4.51904 9.79557 4.67718 10.0267 4.8966C10.2579 5.11601 10.4305 5.38973 10.529 5.69286C10.6274 5.996 10.6485 6.31893 10.5903 6.63228C10.5321 6.94564 10.3965 7.23948 10.1958 7.48708C9.99516 7.73468 9.73577 7.92819 9.44125 8.05H9.44438Z" fill="white"/>
</svg>
