<svg width="22" height="22" viewBox="0 0 22 22" fill="none" xmlns="http://www.w3.org/2000/svg">
<path d="M16.7578 9.57305V12.4241C16.758 12.8023 16.8918 13.165 17.1298 13.4327C17.3678 13.7004 17.6906 13.8514 18.0276 13.8524C18.125 13.8525 18.2221 13.8401 18.3171 13.8157L19.4502 13.5219C19.8915 13.4094 20.2855 13.1315 20.5673 12.734C20.849 12.3365 21.0016 11.8432 21 11.3352V9.85138C21.0018 9.34344 20.8494 8.84995 20.5678 8.4523C20.2862 8.05465 19.8922 7.77658 19.4509 7.66393L18.3164 7.3701C18.127 7.32182 17.9303 7.32238 17.7411 7.37173C17.4669 5.58833 16.6401 3.97098 15.4067 2.80516C14.1733 1.63933 12.6126 1 11 1C9.38744 1 7.82672 1.63933 6.59332 2.80516C5.35992 3.97098 4.53314 5.58833 4.25892 7.37173C4.06947 7.32235 3.87248 7.32207 3.68292 7.37091L2.54983 7.66475C2.10861 7.77717 1.71469 8.05494 1.43297 8.45227C1.15125 8.8496 0.998541 9.34279 1.00002 9.85056V11.3344C0.998172 11.8424 1.15062 12.3359 1.43223 12.7335C1.71383 13.1312 2.10778 13.4092 2.5491 13.5219L3.68365 13.8157C3.77836 13.84 3.87521 13.8524 3.97238 13.8524C4.30936 13.8514 4.63222 13.7004 4.87024 13.4327C5.10825 13.165 5.242 12.8023 5.24219 12.4241V8.68746C5.24219 6.97365 5.84882 5.33003 6.92861 4.11818C8.00841 2.90633 9.47293 2.22552 11 2.22552C12.5271 2.22552 13.9916 2.90633 15.0714 4.11818C16.1512 5.33003 16.7578 6.97365 16.7578 8.68746V9.57305ZM12.8182 19.1635C12.8176 18.6767 12.645 18.2099 12.3383 17.8657C12.0315 17.5214 11.6156 17.3277 11.1818 17.3271C11.1382 17.3271 11.0982 17.3377 11.056 17.3417C11.008 17.3319 10.9591 17.3297 10.9105 17.3352C9.53776 17.6123 8.12211 17.314 6.93237 16.497C6.4252 16.1283 5.97965 15.6625 5.61601 15.1208C5.57342 15.0548 5.5195 14.9989 5.45742 14.9565C5.39533 14.9142 5.32632 14.8862 5.25445 14.8741C5.18258 14.8621 5.1093 14.8663 5.0389 14.8865C4.96851 14.9067 4.90242 14.9425 4.84451 14.9918C4.78661 15.0411 4.73806 15.1028 4.70172 15.1734C4.66538 15.244 4.64197 15.3221 4.63288 15.403C4.62379 15.4839 4.6292 15.5661 4.64878 15.6446C4.66836 15.7231 4.70173 15.7965 4.74692 15.8603C5.1869 16.5165 5.72656 17.0804 6.3411 17.5262C7.32305 18.2268 8.45641 18.6142 9.61964 18.6469C9.57269 18.8141 9.54771 18.9882 9.54546 19.1635C9.54546 19.6506 9.71786 20.1177 10.0247 20.4621C10.3316 20.8065 10.7478 21 11.1818 21C11.6158 21 12.032 20.8065 12.3389 20.4621C12.6458 20.1177 12.8182 19.6506 12.8182 19.1635Z" fill="white"/>
<path d="M15.858 8.98055C15.6731 7.57661 15.0127 6.30686 14.0143 5.43585C13.0159 4.56484 11.7566 4.15974 10.4987 4.30493C9.24078 4.45012 8.08128 5.13442 7.26177 6.21526C6.44225 7.2961 6.02592 8.69013 6.09951 10.1069C6.19186 11.5262 6.76328 12.8524 7.69718 13.815C8.63109 14.7775 9.85707 15.3039 11.125 15.2866H14.709C14.8692 15.2866 15.0254 15.23 15.1555 15.1248C15.2855 15.0196 15.3827 14.8712 15.4334 14.7006C15.4841 14.5299 15.4856 14.3457 15.4379 14.174C15.3901 14.0023 15.2954 13.8519 15.1671 13.744L14.7184 13.366C15.1762 12.7686 15.5148 12.0682 15.7115 11.3118C15.9082 10.5554 15.9577 9.76053 15.858 8.98055ZM9.18169 10.3893C9.07381 10.3893 8.96835 10.3534 8.87865 10.2862C8.78895 10.2189 8.71904 10.1233 8.67776 10.0114C8.63647 9.89958 8.62567 9.77649 8.64672 9.65774C8.66776 9.539 8.71971 9.42992 8.796 9.34431C8.87228 9.2587 8.96947 9.2004 9.07528 9.17677C9.18109 9.15315 9.29076 9.16528 9.39043 9.21161C9.49009 9.25794 9.57528 9.33641 9.63522 9.43707C9.69515 9.53774 9.72714 9.6561 9.72714 9.77717C9.72714 9.93952 9.66968 10.0952 9.56738 10.21C9.46509 10.3248 9.32635 10.3893 9.18169 10.3893ZM10.9999 10.3893C10.892 10.3893 10.7865 10.3534 10.6968 10.2862C10.6071 10.2189 10.5372 10.1233 10.4959 10.0114C10.4547 9.89958 10.4438 9.77649 10.4649 9.65774C10.4859 9.539 10.5379 9.42992 10.6142 9.34431C10.6905 9.2587 10.7876 9.2004 10.8935 9.17677C10.9993 9.15315 11.1089 9.16528 11.2086 9.21161C11.3083 9.25794 11.3935 9.33641 11.4534 9.43707C11.5133 9.53774 11.5453 9.6561 11.5453 9.77717C11.5453 9.93952 11.4879 10.0952 11.3856 10.21C11.2833 10.3248 11.1445 10.3893 10.9999 10.3893ZM12.818 10.3893C12.7102 10.3893 12.6047 10.3534 12.515 10.2862C12.4253 10.2189 12.3554 10.1233 12.3141 10.0114C12.2728 9.89958 12.262 9.77649 12.2831 9.65774C12.3041 9.539 12.3561 9.42992 12.4324 9.34431C12.5086 9.2587 12.6058 9.2004 12.7116 9.17677C12.8174 9.15315 12.9271 9.16528 13.0268 9.21161C13.1265 9.25794 13.2116 9.33641 13.2716 9.43707C13.3315 9.53774 13.3635 9.6561 13.3635 9.77717C13.3635 9.93952 13.306 10.0952 13.2037 10.21C13.1014 10.3248 12.9627 10.3893 12.818 10.3893Z" fill="white"/>
</svg>
