<svg width="40" height="40" viewBox="0 0 40 40" fill="none" xmlns="http://www.w3.org/2000/svg">
<path d="M14.9993 17.9167C12.466 17.9167 10.416 15.8667 10.416 13.3333C10.416 10.8 12.466 8.75 14.9993 8.75C17.5327 8.75 19.5827 10.8 19.5827 13.3333C19.5827 15.8667 17.5327 17.9167 14.9993 17.9167ZM14.9993 11.25C14.4468 11.25 13.9169 11.4695 13.5262 11.8602C13.1355 12.2509 12.916 12.7808 12.916 13.3333C12.916 13.8859 13.1355 14.4158 13.5262 14.8065C13.9169 15.1972 14.4468 15.4167 14.9993 15.4167C15.5519 15.4167 16.0818 15.1972 16.4725 14.8065C16.8632 14.4158 17.0827 13.8859 17.0827 13.3333C17.0827 12.7808 16.8632 12.2509 16.4725 11.8602C16.0818 11.4695 15.5519 11.25 14.9993 11.25Z" fill="#676767"/>
<path d="M24.9997 37.9166H14.9997C5.94967 37.9166 2.08301 34.0499 2.08301 24.9999V14.9999C2.08301 5.94992 5.94967 2.08325 14.9997 2.08325H21.6663C22.3497 2.08325 22.9163 2.64992 22.9163 3.33325C22.9163 4.01659 22.3497 4.58325 21.6663 4.58325H14.9997C7.31634 4.58325 4.58301 7.31659 4.58301 14.9999V24.9999C4.58301 32.6833 7.31634 35.4166 14.9997 35.4166H24.9997C32.683 35.4166 35.4163 32.6833 35.4163 24.9999V16.6666C35.4163 15.9833 35.983 15.4166 36.6663 15.4166C37.3497 15.4166 37.9163 15.9833 37.9163 16.6666V24.9999C37.9163 34.0499 34.0497 37.9166 24.9997 37.9166Z" fill="#676767"/>
<path d="M30 14.5832C29.3167 14.5832 28.75 14.0165 28.75 13.3332V3.33315C28.75 2.83315 29.05 2.36648 29.5167 2.18315C29.9833 1.99982 30.5167 2.09982 30.8833 2.44982L34.2167 5.78315C34.7 6.26648 34.7 7.06648 34.2167 7.54982C33.7333 8.03315 32.9333 8.03315 32.45 7.54982L31.25 6.34982V13.3332C31.25 14.0165 30.6833 14.5832 30 14.5832Z" fill="#676767"/>
<path d="M26.6667 7.91657C26.35 7.91657 26.0333 7.7999 25.7833 7.5499C25.5509 7.31467 25.4205 6.99729 25.4205 6.66657C25.4205 6.33585 25.5509 6.01847 25.7833 5.78324L29.1167 2.4499C29.6 1.96657 30.4 1.96657 30.8833 2.4499C31.3667 2.93324 31.3667 3.73324 30.8833 4.21657L27.55 7.5499C27.3 7.7999 26.9833 7.91657 26.6667 7.91657ZM4.44999 32.8332C4.18359 32.8314 3.92473 32.7446 3.71107 32.5855C3.49741 32.4263 3.34009 32.2032 3.262 31.9485C3.18392 31.6938 3.18914 31.4208 3.2769 31.1693C3.36467 30.9177 3.5304 30.7007 3.74999 30.5499L11.9667 25.0332C13.7667 23.8332 16.25 23.9666 17.8833 25.3499L18.4333 25.8332C19.2667 26.5499 20.6833 26.5499 21.5 25.8332L28.4333 19.8832C30.2 18.3666 32.9833 18.3666 34.7667 19.8832L37.4833 22.2166C38 22.6666 38.0667 23.4499 37.6167 23.9832C37.1667 24.4999 36.3667 24.5666 35.85 24.1166L33.1333 21.7832C32.3 21.0666 30.9 21.0666 30.0667 21.7832L23.1333 27.7332C21.3667 29.2499 18.5833 29.2499 16.8 27.7332L16.25 27.2499C15.4833 26.5999 14.2167 26.5332 13.3667 27.1166L5.16665 32.6332C4.93332 32.7666 4.68332 32.8332 4.44999 32.8332Z" fill="#676767"/>
</svg>
