<svg width="196" height="56" viewBox="0 0 196 56" fill="none" xmlns="http://www.w3.org/2000/svg">
<path d="M5.1 20.172V29.046H14.11V31.018H5.1V40.028H15.13V42H2.72V18.2H15.13V20.172H5.1ZM49.1276 18.234L41.5116 32.752V42H39.1316V32.752L31.4476 18.234H34.1336L40.3216 30.576L46.4756 18.234H49.1276ZM68.591 20.172V29.046H77.601V31.018H68.591V40.028H78.621V42H66.211V18.2H78.621V20.172H68.591ZM120.133 18.54V42H117.753V23.266L109.389 42H107.655L99.2906 23.334V42H96.9106V18.54H99.4266L108.505 38.872L117.583 18.54H120.133ZM152.902 36.356H142.09L140.016 42H137.5L146.17 18.54H148.856L157.492 42H154.976L152.902 36.356ZM152.188 34.384L147.496 21.532L142.804 34.384H152.188ZM192.829 42H190.449L177.291 22.008V42H174.911V18.234H177.291L190.449 38.192V18.234H192.829V42Z" fill="white"/>
<path d="M184.06 4.03V4.77H182.16V11H181.25V4.77H179.34V4.03H184.06ZM193.25 4.08V11H192.34V5.84L190.04 11H189.4L187.09 5.83V11H186.18V4.08H187.16L189.72 9.8L192.28 4.08H193.25Z" fill="white"/>
</svg>
