<svg width="28" height="28" viewBox="0 0 28 28" fill="none" xmlns="http://www.w3.org/2000/svg">
<path fillRule="evenodd" clipRule="evenodd" d="M9.5535 8.42104C10.1315 8.29407 10.8112 8.25537 11.5815 8.25537H16.4187C17.189 8.25537 17.8686 8.29407 18.4467 8.42104C19.0344 8.55044 19.5725 8.78383 19.9994 9.20951C20.4263 9.63518 20.6585 10.1745 20.7879 10.7622C20.9149 11.3403 20.9536 12.0199 20.9536 12.7902V26.0925C20.9536 26.3331 20.858 26.5637 20.6879 26.7338C20.5178 26.9039 20.2871 26.9995 20.0466 26.9995H7.9536C7.71306 26.9995 7.48237 26.9039 7.31228 26.7338C7.14219 26.5637 7.04663 26.3331 7.04663 26.0925V12.7902C7.04663 12.0199 7.08533 11.3403 7.2123 10.7622C7.3417 10.1745 7.57509 9.63639 8.00077 9.20951C8.42644 8.78262 8.96579 8.55044 9.5535 8.42104ZM8.98514 11.1516C8.90048 11.535 8.86058 12.0586 8.86058 12.7902V25.1855H19.1396V12.7902C19.1396 12.0598 19.0997 11.535 19.0163 11.1516C18.934 10.778 18.8228 10.5966 18.7164 10.4926C18.6124 10.3874 18.431 10.2749 18.0573 10.1927C17.6739 10.108 17.1503 10.0693 16.4187 10.0693H11.5815C10.8511 10.0693 10.3275 10.108 9.9429 10.1927C9.56923 10.2749 9.38904 10.3862 9.28383 10.4926C9.17862 10.599 9.06737 10.778 8.98514 11.1516Z" fill="#073660"/>
<path fillRule="evenodd" clipRule="evenodd" d="M11.8839 13.9994C11.8839 13.7588 11.9794 13.5281 12.1495 13.358C12.3196 13.1879 12.5503 13.0924 12.7908 13.0924H15.2094C15.45 13.0924 15.6807 13.1879 15.8507 13.358C16.0208 13.5281 16.1164 13.7588 16.1164 13.9994C16.1164 14.2399 16.0208 14.4706 15.8507 14.6407C15.6807 14.8108 15.45 14.9063 15.2094 14.9063H12.7908C12.5503 14.9063 12.3196 14.8108 12.1495 14.6407C11.9794 14.4706 11.8839 14.2399 11.8839 13.9994ZM11.8839 17.6272C11.8839 17.3867 11.9794 17.156 12.1495 16.9859C12.3196 16.8158 12.5503 16.7203 12.7908 16.7203H15.2094C15.45 16.7203 15.6807 16.8158 15.8507 16.9859C16.0208 17.156 16.1164 17.3867 16.1164 17.6272C16.1164 17.8678 16.0208 18.0985 15.8507 18.2686C15.6807 18.4387 15.45 18.5342 15.2094 18.5342H12.7908C12.5503 18.5342 12.3196 18.4387 12.1495 18.2686C11.9794 18.0985 11.8839 17.8678 11.8839 17.6272ZM11.8839 21.2551C11.8839 21.0146 11.9794 20.7839 12.1495 20.6138C12.3196 20.4437 12.5503 20.3482 12.7908 20.3482H15.2094C15.45 20.3482 15.6807 20.4437 15.8507 20.6138C16.0208 20.7839 16.1164 21.0146 16.1164 21.2551C16.1164 21.4957 16.0208 21.7264 15.8507 21.8965C15.6807 22.0666 15.45 22.1621 15.2094 22.1621H12.7908C12.5503 22.1621 12.3196 22.0666 12.1495 21.8965C11.9794 21.7264 11.8839 21.4957 11.8839 21.2551ZM16.2966 1.05382C16.6376 1.13122 17.0028 1.29205 17.3729 1.47949L22.6623 4.18107C23.2791 4.49548 23.8027 4.76274 24.2126 5.02999C24.6504 5.31418 25.0229 5.63585 25.2986 6.09176C25.5731 6.54645 25.688 7.02775 25.7412 7.55017C25.7908 8.04114 25.7908 8.63854 25.7908 9.34235V26.0923C25.7908 26.3329 25.6952 26.5636 25.5251 26.7337C25.355 26.9037 25.1243 26.9993 24.8838 26.9993C24.6433 26.9993 24.4126 26.9037 24.2425 26.7337C24.0724 26.5636 23.9768 26.3329 23.9768 26.0923V9.38709C23.9768 8.62523 23.9768 8.12217 23.9357 7.73277C23.8994 7.36273 23.8329 7.17408 23.7471 7.03138C23.6612 6.88989 23.5282 6.7484 23.2246 6.55129C22.903 6.34208 22.4652 6.11594 21.7977 5.77734L16.5469 3.09512C16.4122 3.02527 16.2746 2.96112 16.1345 2.90284C16.1224 3.0274 16.1164 3.18702 16.1164 3.3926V8.803C16.1164 9.04355 16.0208 9.27424 15.8507 9.44433C15.6807 9.61442 15.45 9.70997 15.2094 9.70997C14.9689 9.70997 14.7382 9.61442 14.5681 9.44433C14.398 9.27424 14.3024 9.04355 14.3024 8.803V3.39381C14.3024 2.98265 14.3242 2.58963 14.4028 2.25224C14.479 1.92331 14.6459 1.49401 15.0655 1.22312C15.4924 0.946195 15.958 0.977636 16.2966 1.05382ZM4.03309 14.916C4.02577 15.0134 4.02255 15.111 4.02342 15.2086V26.0923C4.02342 26.3329 3.92786 26.5636 3.75777 26.7337C3.58768 26.9037 3.35699 26.9993 3.11645 26.9993C2.8759 26.9993 2.64521 26.9037 2.47512 26.7337C2.30503 26.5636 2.20947 26.3329 2.20947 26.0923V15.2086C2.20947 14.939 2.22157 14.6596 2.2784 14.4033C2.33766 14.136 2.45496 13.8373 2.70408 13.587C2.95319 13.3367 3.2531 13.2206 3.52035 13.1613C3.77672 13.1057 4.05607 13.0924 4.32574 13.0924H7.95364C8.19418 13.0924 8.42487 13.1879 8.59496 13.358C8.76505 13.5281 8.86061 13.7588 8.86061 13.9994C8.86061 14.2399 8.76505 14.4706 8.59496 14.6407C8.42487 14.8108 8.19418 14.9063 7.95364 14.9063H4.32574C4.2281 14.9054 4.13046 14.9087 4.03309 14.916Z" fill="#073660"/>
<path fillRule="evenodd" clipRule="evenodd" d="M1 26.0925C1 25.852 1.09556 25.6213 1.26565 25.4512C1.43574 25.2811 1.66643 25.1855 1.90697 25.1855H26.0929C26.3335 25.1855 26.5642 25.2811 26.7343 25.4512C26.9043 25.6213 26.9999 25.852 26.9999 26.0925C26.9999 26.3331 26.9043 26.5638 26.7343 26.7338C26.5642 26.9039 26.3335 26.9995 26.0929 26.9995H1.90697C1.66643 26.9995 1.43574 26.9039 1.26565 26.7338C1.09556 26.5638 1 26.3331 1 26.0925Z" fill="#073660"/>
</svg>
