<svg width="18" height="18" viewBox="0 0 18 18" fill="none" xmlns="http://www.w3.org/2000/svg">
<path d="M17.8856 8.64982C17.7248 8.42985 13.8933 3.26367 8.99989 3.26367C4.10646 3.26367 0.274848 8.42985 0.114219 8.64961C0.039997 8.75129 0 8.87393 0 8.99982C0 9.12571 0.039997 9.24834 0.114219 9.35003C0.274848 9.57 4.10646 14.7362 8.99989 14.7362C13.8933 14.7362 17.7248 9.56997 17.8856 9.3502C17.9599 9.24857 17.9999 9.12592 17.9999 9.00001C17.9999 8.8741 17.9599 8.75145 17.8856 8.64982ZM8.99989 13.5494C5.39536 13.5494 2.27345 10.1205 1.34929 8.99952C2.27225 7.87758 5.38762 4.45048 8.99989 4.45048C12.6042 4.45048 15.726 7.87877 16.6505 9.00033C15.7275 10.1222 12.6122 13.5494 8.99989 13.5494Z" fill="#676767"/>
<path d="M8.9999 5.43945C7.03671 5.43945 5.43945 7.03671 5.43945 8.9999C5.43945 10.9631 7.03671 12.5604 8.9999 12.5604C10.9631 12.5604 12.5604 10.9631 12.5604 8.9999C12.5604 7.03671 10.9631 5.43945 8.9999 5.43945ZM8.9999 11.3735C7.69104 11.3735 6.62629 10.3087 6.62629 8.9999C6.62629 7.69107 7.69107 6.62629 8.9999 6.62629C10.3087 6.62629 11.3735 7.69107 11.3735 8.9999C11.3735 10.3087 10.3088 11.3735 8.9999 11.3735Z" fill="#676767"/>
</svg>
