<svg width="18" height="18" viewBox="0 0 18 18" fill="none" xmlns="http://www.w3.org/2000/svg">
<path d="M11.2347 9.15163L12.257 8.12928C12.3314 8.40758 12.375 8.69853 12.375 9.00003C12.375 10.8611 10.861 12.375 8.99998 12.375C8.69848 12.375 8.40753 12.3314 8.12923 12.2571L9.15158 11.2347C9.69196 11.198 10.2007 10.9668 10.5837 10.5838C10.9667 10.2008 11.198 9.69201 11.2347 9.15163ZM17.9291 8.7268C17.8599 8.60235 16.8786 6.88293 14.9605 5.42577L14.1419 6.24435C15.5406 7.27274 16.4268 8.47213 16.7757 9.00088C16.109 10.016 13.4937 13.5 8.99998 13.5C8.32611 13.5 7.69948 13.4138 7.10984 13.2763L6.18552 14.2006C7.03531 14.4612 7.96934 14.625 8.99998 14.625C14.8884 14.625 17.8078 9.49166 17.9291 9.27327C17.9756 9.1897 18 9.09566 18 9.00003C18 8.90441 17.9756 8.81037 17.9291 8.7268ZM15.5852 3.21022L3.21017 15.5852C3.10034 15.6951 2.95634 15.75 2.81248 15.75C2.66862 15.75 2.52462 15.6951 2.4148 15.5852C2.36253 15.533 2.32107 15.471 2.29278 15.4028C2.26449 15.3346 2.24993 15.2614 2.24993 15.1875C2.24993 15.1137 2.26449 15.0405 2.29278 14.9723C2.32107 14.904 2.36253 14.842 2.4148 14.7898L3.98923 13.2154C1.44392 11.6788 0.150593 9.41685 0.0708591 9.27327C0.0243879 9.18967 0 9.09561 0 8.99996C0 8.90432 0.0243879 8.81026 0.0708591 8.72666C0.192218 8.50841 3.11159 3.37504 8.99998 3.37504C10.5225 3.37504 11.8413 3.72238 12.9687 4.23594L14.7898 2.41485C15.0096 2.19505 15.3655 2.19505 15.5852 2.41485C15.8048 2.63464 15.805 2.99057 15.5852 3.21022ZM4.82806 12.3766L6.25217 10.9525C5.85884 10.4007 5.62498 9.72777 5.62498 9.00003C5.62498 7.139 7.13895 5.62504 8.99998 5.62504C9.72772 5.62504 10.4006 5.85889 10.9524 6.25208L12.104 5.1005C11.1942 4.73614 10.1603 4.50004 8.99998 4.50004C4.50631 4.50004 1.89097 7.98402 1.22441 8.99919C1.64769 9.64072 2.86437 11.2647 4.82806 12.3766ZM7.06878 10.1357L10.1357 7.06883C9.80112 6.87125 9.41595 6.75003 8.99998 6.75003C7.75939 6.75003 6.74998 7.75944 6.74998 9.00003C6.74998 9.416 6.8712 9.80118 7.06878 10.1357Z" fill="#676767"/>
</svg>
