<svg width="18" height="18" viewBox="0 0 18 18" fill="none" xmlns="http://www.w3.org/2000/svg">
<g clip-path="url(#clip0_975_4524)">
<path d="M11.9995 17.062H6.00098C4.90073 17.062 4.10648 17.062 3.45623 16.9743C2.69123 16.8708 2.16698 16.6435 1.76198 16.2385C1.35473 15.8313 1.12748 15.3093 1.02623 14.5443C0.938477 13.894 0.938477 13.0998 0.938477 11.9995C0.938477 10.8993 0.938477 10.105 1.02623 9.45476C1.12973 8.68976 1.35698 8.16551 1.76198 7.76051C2.16923 7.35326 2.69123 7.12601 3.45623 7.02476C4.10648 6.93701 4.90073 6.93701 6.00098 6.93701H12.0017C13.102 6.93701 13.8962 6.93701 14.5465 7.02476C15.3115 7.12826 15.8357 7.35551 16.2407 7.76051C16.6457 8.16551 16.8752 8.68976 16.9765 9.45476C17.0642 10.105 17.0642 10.8993 17.0642 11.9995C17.0642 13.0998 17.0642 13.894 16.9765 14.5443C16.873 15.3093 16.6457 15.8335 16.2407 16.2385C15.8357 16.6435 15.3115 16.873 14.5465 16.9743C13.894 17.062 13.0997 17.062 11.9995 17.062ZM6.00098 8.06201C4.03673 8.06201 3.05123 8.06201 2.55848 8.55701C2.06573 9.05201 2.06348 10.0375 2.06348 11.9995C2.06348 13.9615 2.06348 14.9493 2.55848 15.442C3.05348 15.937 4.03898 15.937 6.00098 15.937H12.0017C13.966 15.937 14.9515 15.937 15.4442 15.442C15.9392 14.947 15.9392 13.9615 15.9392 11.9995C15.9392 10.0375 15.9392 9.04976 15.4442 8.55701C14.9492 8.06426 13.9637 8.06201 12.0017 8.06201H6.00098Z" fill="#676767"/>
<path d="M13.5 8.06179C13.1895 8.06179 12.9375 7.80978 12.9375 7.49929V5.99854C12.9375 3.82729 11.1713 2.06104 9 2.06104C6.82875 2.06104 5.0625 3.82729 5.0625 5.99854V7.49929C5.0625 7.80978 4.8105 8.06179 4.5 8.06179C4.1895 8.06179 3.9375 7.80978 3.9375 7.49929V5.99854C3.9375 4.64629 4.464 3.37504 5.42025 2.41879C6.3765 1.46254 7.64775 0.936035 9 0.936035C10.3523 0.936035 11.6235 1.46254 12.5798 2.41879C13.536 3.37504 14.0625 4.64629 14.0625 5.99854V7.49929C14.0625 7.80978 13.8105 8.06179 13.5 8.06179ZM11.9993 12.7508H11.9925C11.5785 12.7508 11.2433 12.4155 11.2433 12.0015C11.2433 11.5875 11.5785 11.25 11.9925 11.25H11.9993C12.4132 11.25 12.7485 11.5853 12.7485 11.9993C12.7485 12.4133 12.4132 12.7508 11.9993 12.7508ZM9 12.7508H8.99325C8.57925 12.7508 8.244 12.4155 8.244 12.0015C8.244 11.5875 8.57925 11.2523 8.99325 11.2523H9C9.414 11.2523 9.74925 11.5875 9.74925 12.0015C9.74925 12.4155 9.414 12.7508 9 12.7508ZM6.0075 12.7508H6.00075C5.58675 12.7508 5.2515 12.4155 5.2515 12.0015C5.2515 11.5875 5.58675 11.2523 6.00075 11.2523H6.0075C6.4215 11.2523 6.75675 11.5875 6.75675 12.0015C6.75675 12.4155 6.4215 12.7508 6.0075 12.7508Z" fill="#676767"/>
</g>
<defs>
<clipPath id="clip0_975_4524">
<rect width="18" height="18" fill="white"/>
</clipPath>
</defs>
</svg>
