<svg width="22" height="22" viewBox="0 0 22 22" fill="none" xmlns="http://www.w3.org/2000/svg">
<path d="M9.625 14.7881V13.0625H6.1875C6.00516 13.0625 5.8303 12.9901 5.70136 12.8611C5.57243 12.7322 5.5 12.5573 5.5 12.375C5.5 12.1927 5.57243 12.0178 5.70136 11.8889C5.8303 11.7599 6.00516 11.6875 6.1875 11.6875H9.74875C9.85141 11.3992 10.0169 11.1373 10.2334 10.9209C10.4498 10.7044 10.7117 10.5389 11 10.4363L14.7812 9.06125C15.2365 8.89576 15.7354 8.89576 16.1906 9.06125L17.2081 9.4325V3.4375C17.2081 2.89049 16.9908 2.36589 16.604 1.97909C16.2172 1.5923 15.6926 1.375 15.1456 1.375H4.125C3.57799 1.375 3.05339 1.5923 2.66659 1.97909C2.2798 2.36589 2.0625 2.89049 2.0625 3.4375V18.5625C2.0625 19.1095 2.2798 19.6341 2.66659 20.0209C3.05339 20.4077 3.57799 20.625 4.125 20.625H12.4575C11.5763 19.9282 10.8639 19.0413 10.3734 18.0306C9.88298 17.0199 9.62713 15.9115 9.625 14.7881ZM6.1875 4.8125H13.0625C13.2448 4.8125 13.4197 4.88493 13.5486 5.01386C13.6776 5.1428 13.75 5.31766 13.75 5.5C13.75 5.68234 13.6776 5.8572 13.5486 5.98614C13.4197 6.11507 13.2448 6.1875 13.0625 6.1875H6.1875C6.00516 6.1875 5.8303 6.11507 5.70136 5.98614C5.57243 5.8572 5.5 5.68234 5.5 5.5C5.5 5.31766 5.57243 5.1428 5.70136 5.01386C5.8303 4.88493 6.00516 4.8125 6.1875 4.8125ZM6.1875 8.25H13.0625C13.2448 8.25 13.4197 8.32243 13.5486 8.45136C13.6776 8.5803 13.75 8.75516 13.75 8.9375C13.75 9.11984 13.6776 9.2947 13.5486 9.42364C13.4197 9.55257 13.2448 9.625 13.0625 9.625H6.1875C6.00516 9.625 5.8303 9.55257 5.70136 9.42364C5.57243 9.2947 5.5 9.11984 5.5 8.9375C5.5 8.75516 5.57243 8.5803 5.70136 8.45136C5.8303 8.32243 6.00516 8.25 6.1875 8.25ZM8.25 17.1875H6.1875C6.00516 17.1875 5.8303 17.1151 5.70136 16.9861C5.57243 16.8572 5.5 16.6823 5.5 16.5C5.5 16.3177 5.57243 16.1428 5.70136 16.0139C5.8303 15.8849 6.00516 15.8125 6.1875 15.8125H8.25C8.43234 15.8125 8.6072 15.8849 8.73614 16.0139C8.86507 16.1428 8.9375 16.3177 8.9375 16.5C8.9375 16.6823 8.86507 16.8572 8.73614 16.9861C8.6072 17.1151 8.43234 17.1875 8.25 17.1875ZM19.4837 11.7287L15.7025 10.3538C15.5515 10.2991 15.386 10.2991 15.235 10.3538L11.4537 11.7287C11.3209 11.7768 11.206 11.8646 11.1248 11.9802C11.0437 12.0959 11.0001 12.2337 11 12.375V14.7881C11.0031 16.0344 11.3884 17.2497 12.1039 18.27C12.8194 19.2904 13.8307 20.0668 15.0012 20.4944C15.1498 20.5543 15.3086 20.5847 15.4688 20.5837C15.6282 20.5836 15.7864 20.5556 15.9363 20.5012C17.1068 20.0716 18.1178 19.2937 18.8331 18.2724C19.5484 17.251 19.9338 16.0351 19.9375 14.7881V12.375C19.9374 12.2337 19.8938 12.0959 19.8127 11.9802C19.7315 11.8646 19.6166 11.7768 19.4837 11.7287ZM17.6756 14.9256L15.6131 16.9881C15.5492 17.0526 15.4732 17.1037 15.3894 17.1386C15.3056 17.1735 15.2158 17.1915 15.125 17.1915C15.0342 17.1915 14.9444 17.1735 14.8606 17.1386C14.7768 17.1037 14.7008 17.0526 14.6369 16.9881L13.2619 15.6131C13.1324 15.4837 13.0597 15.3081 13.0597 15.125C13.0597 14.9419 13.1324 14.7663 13.2619 14.6369C13.3913 14.5074 13.5669 14.4347 13.75 14.4347C13.9331 14.4347 14.1087 14.5074 14.2381 14.6369L15.125 15.5306L16.6994 13.9494C16.8288 13.8199 17.0044 13.7472 17.1875 13.7472C17.3706 13.7472 17.5462 13.8199 17.6756 13.9494C17.8051 14.0788 17.8778 14.2544 17.8778 14.4375C17.8778 14.6206 17.8051 14.7962 17.6756 14.9256Z" fill="white"/>
</svg>
