<svg width="24" height="24" viewBox="0 0 24 24" fill="none" xmlns="http://www.w3.org/2000/svg">
<path d="M10.8219 2C9.60354 2 8.43504 2.48401 7.5735 3.34555C6.71196 4.20709 6.22795 5.3756 6.22795 6.594C6.22795 7.8124 6.71196 8.98091 7.5735 9.84245C8.43504 10.704 9.60354 11.188 10.8219 11.188C12.0404 11.188 13.2089 10.704 14.0704 9.84245C14.9319 8.98091 15.4159 7.8124 15.4159 6.594C15.4159 5.3756 14.9319 4.20709 14.0704 3.34555C13.2089 2.48401 12.0404 2 10.8219 2ZM10.8869 13.226C11.0609 12.925 10.8289 12.485 10.4809 12.485H9.52495C7.73412 12.4853 6.01672 13.1969 4.7505 14.4633C3.48429 15.7297 2.77295 17.4472 2.77295 19.238C2.77295 19.9705 3.06394 20.6731 3.58192 21.191C4.0999 21.709 4.80242 22 5.53495 22H12.1669C12.5069 22 12.4769 21.672 12.1719 21.52C11.72 21.2965 11.3445 20.944 11.0929 20.507L10.4579 19.407C10.2466 19.0412 10.1291 18.6287 10.116 18.2064C10.1029 17.7842 10.1946 17.3652 10.3829 16.987C10.4287 16.894 10.4526 16.7917 10.4526 16.688C10.4526 16.5843 10.4287 16.482 10.3829 16.389C10.1946 16.0108 10.1029 15.5919 10.116 15.1696C10.1291 14.7473 10.2466 14.3348 10.4579 13.969L10.8869 13.226Z" fill="white"/>
<path fill-rule="evenodd" clip-rule="evenodd" d="M15.8029 11.6841C15.2369 11.6841 14.7769 12.1441 14.7769 12.7111V12.7191C14.775 12.8161 14.7471 12.9108 14.6961 12.9933C14.6451 13.0758 14.5728 13.1431 14.4869 13.1881L14.3759 13.2511C14.2944 13.3015 14.201 13.3293 14.1052 13.3318C14.0095 13.3342 13.9148 13.3112 13.8309 13.2651L13.8249 13.2611C13.7081 13.1937 13.5793 13.1499 13.4456 13.1323C13.312 13.1147 13.1761 13.1236 13.0459 13.1586C12.9157 13.1935 12.7937 13.2537 12.6868 13.3358C12.5799 13.4179 12.4902 13.5203 12.4229 13.6371L11.7879 14.7371C11.6519 14.9726 11.6151 15.2525 11.6854 15.5152C11.7557 15.7779 11.9274 16.0019 12.1629 16.1381C12.2422 16.1862 12.3073 16.2547 12.3513 16.3365C12.3952 16.4183 12.4165 16.5103 12.4129 16.6031C12.4116 16.6597 12.4116 16.7164 12.4129 16.7731C12.4168 16.866 12.3956 16.9583 12.3517 17.0403C12.3077 17.1223 12.2425 17.1909 12.1629 17.2391C11.6729 17.5221 11.5049 18.1491 11.7879 18.6401L12.4229 19.7401C12.7059 20.2311 13.3329 20.4001 13.8249 20.1161L13.8319 20.1121C13.9157 20.0658 14.0104 20.0426 14.1061 20.0449C14.2019 20.0472 14.2953 20.0749 14.3769 20.1251C14.4129 20.1471 14.4499 20.1671 14.4869 20.1881C14.6599 20.2831 14.7769 20.4591 14.7769 20.6561V20.6661C14.7769 21.2331 15.2369 21.6921 15.8029 21.6921H17.0729C17.6399 21.6921 18.0999 21.2321 18.0999 20.6661V20.6161C18.0999 20.4221 18.2129 20.2481 18.3799 20.1521L18.4589 20.1061C18.5407 20.0544 18.6349 20.0256 18.7317 20.0228C18.8284 20.02 18.9242 20.0432 19.0089 20.0901L19.0529 20.1161C19.5429 20.3991 20.1709 20.2311 20.4549 19.7401L21.0899 18.6401C21.2257 18.4044 21.2624 18.1245 21.1919 17.8617C21.1214 17.599 20.9494 17.3751 20.7139 17.2391L20.6509 17.2021C20.5692 17.1526 20.5022 17.0824 20.4565 16.9987C20.4108 16.9149 20.3882 16.8205 20.3909 16.7251V16.6521C20.388 16.5565 20.4106 16.4619 20.4562 16.3779C20.5019 16.294 20.5691 16.2236 20.6509 16.1741L20.7139 16.1381C21.2049 15.8551 21.3739 15.2281 21.0899 14.7361L20.4549 13.6361C20.3874 13.5194 20.2977 13.4171 20.1907 13.3351C20.0838 13.2531 19.9617 13.193 19.8315 13.1581C19.7013 13.1233 19.5656 13.1145 19.432 13.1321C19.2983 13.1498 19.1695 13.1936 19.0529 13.2611L19.0089 13.2861C18.9241 13.3329 18.8284 13.356 18.7317 13.3532C18.6349 13.3504 18.5407 13.3217 18.4589 13.2701C18.433 13.2541 18.407 13.2385 18.3809 13.2231C18.2975 13.1774 18.2276 13.1106 18.1782 13.0293C18.1289 12.948 18.1019 12.8551 18.0999 12.7601V12.7101C18.0999 12.1441 17.6399 11.6841 17.0729 11.6841H15.8029ZM18.5089 16.6881C18.5089 17.2371 18.2908 17.7636 17.9026 18.1518C17.5144 18.54 16.9879 18.7581 16.4389 18.7581C15.8899 18.7581 15.3633 18.54 14.9751 18.1518C14.5869 17.7636 14.3689 17.2371 14.3689 16.6881C14.3689 16.1391 14.5869 15.6126 14.9751 15.2244C15.3633 14.8362 15.8899 14.6181 16.4389 14.6181C16.9879 14.6181 17.5144 14.8362 17.9026 15.2244C18.2908 15.6126 18.5089 16.1391 18.5089 16.6881Z" fill="white"/>
</svg>
