<svg width="12" height="13" viewBox="0 0 12 13" fill="none" xmlns="http://www.w3.org/2000/svg">
<path d="M7.92733 12.5677H3.44733C2.99911 12.5612 2.56985 12.3858 2.2454 12.0765C1.92094 11.7672 1.72521 11.3468 1.69733 10.8994L1.16649 2.82604C1.16377 2.76751 1.17268 2.70902 1.19271 2.65395C1.21273 2.59888 1.24348 2.54832 1.28316 2.50521C1.32404 2.46053 1.37354 2.42457 1.42868 2.39951C1.48381 2.37445 1.54345 2.3608 1.60399 2.35938H9.77066C9.83065 2.35924 9.89003 2.37145 9.94511 2.39524C10.0002 2.41902 10.0498 2.45388 10.0908 2.49765C10.1318 2.54142 10.1634 2.59316 10.1836 2.64965C10.2038 2.70614 10.2122 2.76618 10.2082 2.82604L9.70066 10.8994C9.67249 11.3508 9.47347 11.7745 9.14406 12.0844C8.81466 12.3943 8.3796 12.5671 7.92733 12.5677ZM2.09399 3.23438L2.54316 10.8469C2.558 11.0764 2.65977 11.2917 2.82776 11.4488C2.99574 11.606 3.2173 11.6932 3.44733 11.6927H7.92733C8.15695 11.6918 8.37774 11.6041 8.54543 11.4473C8.71312 11.2904 8.8153 11.0759 8.83149 10.8469L9.304 3.26354L2.09399 3.23438Z" fill="black"/>
<path d="M10.9375 3.23438H0.4375C0.321468 3.23437 0.210188 3.18828 0.128141 3.10623C0.0460936 3.02419 0 2.91291 0 2.79688C0 2.68084 0.0460936 2.56956 0.128141 2.48752C0.210188 2.40547 0.321468 2.35938 0.4375 2.35938H10.9375C11.0535 2.35938 11.1648 2.40547 11.2469 2.48752C11.3289 2.56956 11.375 2.68084 11.375 2.79688C11.375 2.91291 11.3289 3.02419 11.2469 3.10623C11.1648 3.18828 11.0535 3.23437 10.9375 3.23438Z" fill="black"/>
<path d="M7.4375 3.23438H3.9375C3.82194 3.23286 3.71153 3.18629 3.62981 3.10456C3.54809 3.02284 3.50151 2.91244 3.5 2.79688V1.74688C3.50739 1.44752 3.62961 1.16247 3.84135 0.950728C4.05309 0.738987 4.33814 0.61677 4.6375 0.609375H6.7375C7.04184 0.616986 7.33114 0.743254 7.54367 0.961227C7.75619 1.1792 7.87509 1.47161 7.875 1.77604V2.79688C7.87349 2.91244 7.82691 3.02284 7.74519 3.10456C7.66347 3.18629 7.55306 3.23286 7.4375 3.23438ZM4.375 2.35938H7V1.77604C7 1.70642 6.97234 1.63965 6.92312 1.59043C6.87389 1.5412 6.80712 1.51354 6.7375 1.51354H4.6375C4.56788 1.51354 4.50111 1.5412 4.45188 1.59043C4.40266 1.63965 4.375 1.70642 4.375 1.77604V2.35938ZM7.4375 10.2344C7.32194 10.2329 7.21153 10.1863 7.12981 10.1046C7.04809 10.0228 7.00151 9.91244 7 9.79688V5.13021C7 5.01418 7.04609 4.9029 7.12814 4.82085C7.21019 4.7388 7.32147 4.69271 7.4375 4.69271C7.55353 4.69271 7.66481 4.7388 7.74686 4.82085C7.82891 4.9029 7.875 5.01418 7.875 5.13021V9.79688C7.87349 9.91244 7.82691 10.0228 7.74519 10.1046C7.66347 10.1863 7.55306 10.2329 7.4375 10.2344ZM3.9375 10.2344C3.82194 10.2329 3.71153 10.1863 3.62981 10.1046C3.54809 10.0228 3.50151 9.91244 3.5 9.79688V5.13021C3.5 5.01418 3.54609 4.9029 3.62814 4.82085C3.71019 4.7388 3.82147 4.69271 3.9375 4.69271C4.05353 4.69271 4.16481 4.7388 4.24686 4.82085C4.32891 4.9029 4.375 5.01418 4.375 5.13021V9.79688C4.37349 9.91244 4.32691 10.0228 4.24519 10.1046C4.16347 10.1863 4.05306 10.2329 3.9375 10.2344ZM5.6875 10.2344C5.57194 10.2329 5.46153 10.1863 5.37981 10.1046C5.29809 10.0228 5.25151 9.91244 5.25 9.79688V5.13021C5.25 5.01418 5.29609 4.9029 5.37814 4.82085C5.46019 4.7388 5.57147 4.69271 5.6875 4.69271C5.80353 4.69271 5.91481 4.7388 5.99686 4.82085C6.07891 4.9029 6.125 5.01418 6.125 5.13021V9.79688C6.12349 9.91244 6.07691 10.0228 5.99519 10.1046C5.91347 10.1863 5.80306 10.2329 5.6875 10.2344Z" fill="black"/>
</svg>
