<svg width="45" height="45" viewBox="0 0 45 45" fill="none" xmlns="http://www.w3.org/2000/svg">
<rect width="45" height="45" rx="22.5" fill="#013369"/>
<path d="M22.6364 24.034C21.625 24.034 20.6363 23.7341 19.7954 23.1722C18.9545 22.6103 18.299 21.8117 17.912 20.8773C17.525 19.9429 17.4237 18.9147 17.621 17.9228C17.8183 16.9308 18.3053 16.0197 19.0205 15.3045C19.7357 14.5894 20.6468 14.1023 21.6388 13.905C22.6307 13.7077 23.6589 13.809 24.5933 14.196C25.5277 14.5831 26.3263 15.2385 26.8882 16.0794C27.4501 16.9204 27.75 17.909 27.75 18.9204C27.75 20.2766 27.2113 21.5773 26.2523 22.5363C25.2933 23.4953 23.9926 24.034 22.6364 24.034ZM22.6364 15.5113C21.9621 15.5113 21.303 15.7113 20.7424 16.0858C20.1818 16.4604 19.7448 16.9929 19.4868 17.6158C19.2288 18.2387 19.1613 18.9242 19.2928 19.5855C19.4243 20.2468 19.749 20.8542 20.2258 21.331C20.7026 21.8078 21.31 22.1324 21.9713 22.264C22.6326 22.3955 23.3181 22.328 23.941 22.07C24.5639 21.812 25.0963 21.375 25.4709 20.8144C25.8455 20.2538 26.0455 19.5947 26.0455 18.9204C26.0455 18.0163 25.6863 17.1491 25.047 16.5098C24.4077 15.8705 23.5405 15.5113 22.6364 15.5113Z" fill="white"/>
<path d="M22.6363 35.9658C20.7464 35.9646 18.8802 35.5443 17.1722 34.7352C15.4641 33.9262 13.9567 32.7484 12.7585 31.2869L12.3153 30.7414L12.7585 30.2045C13.9578 28.7448 15.4656 27.5691 17.1736 26.7618C18.8816 25.9546 20.7472 25.5359 22.6363 25.5359C24.5255 25.5359 26.3911 25.9546 28.0991 26.7618C29.8071 27.5691 31.3149 28.7448 32.5142 30.2045L32.9574 30.7414L32.5142 31.2869C31.3159 32.7484 29.8086 33.9262 28.1005 34.7352C26.3925 35.5443 24.5263 35.9646 22.6363 35.9658ZM14.5483 30.7499C15.5848 31.8596 16.8384 32.7444 18.2313 33.3493C19.6241 33.9542 21.1264 34.2663 22.6449 34.2663C24.1634 34.2663 25.6657 33.9542 27.0585 33.3493C28.4513 32.7444 29.7049 31.8596 30.7415 30.7499C29.7049 29.6403 28.4513 28.7555 27.0585 28.1506C25.6657 27.5457 24.1634 27.2336 22.6449 27.2336C21.1264 27.2336 19.6241 27.5457 18.2313 28.1506C16.8384 28.7555 15.5848 29.6403 14.5483 30.7499Z" fill="white"/>
<path d="M22.6364 35.9659C19.7325 35.9678 16.9144 34.9811 14.6461 33.168C12.3777 31.3549 10.7942 28.8236 10.1562 25.9906C9.51815 23.1577 9.86363 20.1919 11.1357 17.5815C12.4079 14.971 14.5308 12.8715 17.1552 11.6283C19.7796 10.3852 22.749 10.0726 25.5747 10.742C28.4004 11.4113 30.914 13.0228 32.7019 15.3111C34.4897 17.5994 35.4452 20.4282 35.4111 23.3319C35.377 26.2356 34.3553 29.0412 32.5142 31.2869C31.316 32.7485 29.8086 33.9262 28.1006 34.7353C26.3925 35.5443 24.5264 35.9646 22.6364 35.9659ZM22.6364 12.1023C20.4451 12.1023 18.303 12.7521 16.4809 13.9695C14.6589 15.1869 13.2388 16.9173 12.4002 18.9418C11.5617 20.9664 11.3422 23.1941 11.7698 25.3433C12.1973 27.4925 13.2525 29.4667 14.802 31.0162C16.3515 32.5657 18.3257 33.621 20.4749 34.0485C22.6241 34.476 24.8518 34.2566 26.8764 33.418C28.9009 32.5794 30.6313 31.1593 31.8487 29.3373C33.0661 27.5152 33.716 25.3731 33.716 23.1818C33.716 20.2433 32.5486 17.4252 30.4708 15.3474C28.393 13.2696 25.5749 12.1023 22.6364 12.1023Z" fill="white"/>
<path d="M13.4148 30.75C13.4148 30.75 21.9972 40.3381 30.733 31.7046L31.858 30.75C31.858 30.75 24.5625 23.1818 17.1563 27.7245L13.4148 30.75Z" fill="white"/>
<path d="M22.6364 23.1818C24.9899 23.1818 26.8978 21.2739 26.8978 18.9204C26.8978 16.5669 24.9899 14.6591 22.6364 14.6591C20.2829 14.6591 18.375 16.5669 18.375 18.9204C18.375 21.2739 20.2829 23.1818 22.6364 23.1818Z" fill="white"/>
</svg>
